<svg width="20" height="20" viewBox="0 0 20 20" fill="none" xmlns="http://www.w3.org/2000/svg">
<g id="Group 1">
<path id="Vector" d="M15.8333 11.6667V13.3334H13.3333V11.9L15.8333 11.6667ZM15.8333 10.8334C15.8333 9.91672 15 9.16672 14 9.16672H8.33329V8.33338H4.16663V17.5H8.33329V11.5917L15.8333 10.8334ZM4.16663 7.50005H8.33329V5.83338L12.8 4.34172C12.8998 4.31121 12.9925 4.26088 13.0725 4.19373C13.1525 4.12658 13.2181 4.044 13.2654 3.95091C13.3127 3.85783 13.3408 3.75616 13.3479 3.65198C13.355 3.5478 13.3411 3.44325 13.3069 3.34459C13.2727 3.24593 13.219 3.15517 13.1489 3.07775C13.0788 3.00033 12.9938 2.93784 12.8991 2.894C12.8043 2.85017 12.7017 2.8259 12.5973 2.82264C12.4929 2.81939 12.389 2.83721 12.2916 2.87505L4.16663 5.83338V7.50005Z" fill="#0F68AA"/>
</g>
</svg>
